<?xml version="1.0" encoding="UTF-8"?><svg id="uuid-a06a6122-ac2d-446c-85cf-52e6e31d1ada" xmlns="http://www.w3.org/2000/svg" viewBox="0 0 100 100"><path d="m61.3956958,9.499124H6.0438891C2.8784228,9.499124.3123828,12.0652251.3123828,15.2306303v69.5386963c0,3.1654663,2.56604,5.7315063,5.7315063,5.7315063h87.9122314c3.1654053,0,5.7315063-2.56604,5.7315063-5.7315063v-36.9782715c0-21.1480103-17.1438599-38.2919312-38.2919312-38.2919312Z" fill="#ee721e" stroke-width="0"/><path d="m82.3543139,28.4607939h-6.0447998c-2.5032959,0-4.5325928,2.0293579-4.5325928,4.5325928v25.5380859h-.1495972l-16.192627-27.8182373c-.8117065-1.3945923-2.3036499-2.2524414-3.9172974-2.2524414h-8.4946899c-1.7258301,0-3.2258301.9648438-3.991394,2.3843384-.4135742.7086792-.654541,1.5303955-.654541,2.4101562v28.8666382c0,4.8617554-2.6928711,8.3029175-8.0036621,8.3029175-5.7598877,0-8.4527588-3.0670166-8.4527588-8.0036621v-29.1658936c0-2.6479492-2.1465454-4.7944946-4.7944946-4.7944946h-6.0445557c-2.6478882,0-4.7944336,2.1465454-4.7944336,4.7944946v28.2682495c0,13.3894653,7.7794189,21.3931885,23.8619385,21.3931885,16.0073853,0,23.8617554-8.2280884,23.8617554-21.3931885v-9.4085693l15.4207153,27.5126953c.8018799,1.430603,2.3139038,2.3164673,3.9539185,2.3164673h8.9691162c2.5032959,0,4.5325928-2.0292969,4.5325928-4.5325928v-44.4181519c0-2.5032349-2.0292969-4.5325928-4.5325928-4.5325928Z" fill="#fff" stroke-width="0"/></svg>