<svg width="165" height="55" viewBox="0 0 165 55" fill="none" xmlns="http://www.w3.org/2000/svg">
<g clip-path="url(#clip0_527_4)">
<path d="M5.2524 32.6569V15.2657C5.2524 13.6366 6.46795 12.316 7.96743 12.316H11.3904C12.8898 12.316 14.1054 13.6366 14.1054 15.2657V33.2092C14.1054 34.0971 14.2368 34.8859 14.5028 35.5588L23.4244 21.3746V15.2657C23.4244 14.6942 23.5745 14.1609 23.8335 13.7091C24.2775 12.8765 25.1059 12.316 26.0553 12.316H29.1221L36.4596 0.650391H5.1148C3.32227 0.650391 1.86914 2.22911 1.86914 4.17655V46.9583C1.86914 48.9057 3.32227 50.4844 5.1148 50.4844L9.65969 43.2587C6.70327 41.0181 5.2524 37.3832 5.2524 32.6569Z" fill="#F39208"/>
<path d="M18.8912 38.1336C21.8986 38.1336 23.4236 36.0165 23.4236 33.0255V21.375L14.502 35.5591C15.1458 37.1878 16.5831 38.1336 18.8912 38.1336Z" fill="#F07F17"/>
<path d="M36.4591 0.650391L29.1216 12.316H30.8652C31.779 12.316 32.6238 12.8438 33.0835 13.7018L42.2531 30.8161H42.3378V15.1046C42.3378 13.5645 43.487 12.316 44.9045 12.316H48.3276C49.7452 12.316 50.8943 13.5645 50.8943 15.1046V42.4316C50.8943 43.9717 49.7452 45.2201 48.3276 45.2201H43.2485C42.3198 45.2201 41.4636 44.6751 41.0095 43.795L32.277 26.8686V32.6569C32.277 40.7564 27.8292 45.8185 18.7645 45.8185C14.8825 45.8185 11.8555 44.9232 9.65915 43.2587L5.11426 50.4844H54.8975C56.6901 50.4844 58.1432 48.9057 58.1432 46.9583V24.2084C58.1432 11.1977 48.4349 0.650391 36.4591 0.650391Z" fill="#F07F17"/>
<path d="M32.0445 26.5827V34.7623C32.0445 36.3023 30.8954 37.5508 29.4778 37.5508H26.0509C24.6355 37.5508 23.4881 36.3043 23.4881 34.7666V15.105C23.4881 14.5964 23.6141 14.12 23.833 13.7094C23.574 14.1613 23.424 14.6945 23.424 15.2661V33.0255C23.424 36.0165 21.899 38.1336 18.8916 38.1336C16.5835 38.1336 15.1462 37.1878 14.5023 35.5591C14.2364 34.8862 14.1049 34.0975 14.1049 33.2095V15.2661C14.1049 13.637 12.8894 12.3164 11.3899 12.3164H7.96699C6.46751 12.3164 5.25195 13.637 5.25195 15.2661V32.6573C5.25195 37.3836 6.70283 41.0185 9.65925 43.259C11.8556 44.9236 14.8826 45.8188 18.7646 45.8188C27.8293 45.8188 32.2771 40.7568 32.2771 32.6573V26.869L32.1294 26.5827H32.0445Z" fill="#EEEDED"/>
<path d="M26.055 12.3164C25.1056 12.3164 24.2772 12.8769 23.8332 13.7094C23.6142 14.12 23.4883 14.5964 23.4883 15.105V34.7666C23.4883 36.3043 24.6357 37.5508 26.051 37.5508H29.478C30.8955 37.5508 32.0447 36.3023 32.0447 34.7623V26.5827H32.1295L32.2772 26.869L41.0098 43.7954C41.4638 44.6755 42.3201 45.2205 43.2488 45.2205H48.3279C49.7454 45.2205 50.8946 43.972 50.8946 42.4319V15.105C50.8946 13.5649 49.7454 12.3164 48.3279 12.3164H44.9048C43.4872 12.3164 42.338 13.5649 42.338 15.105V30.8165H42.2533L33.0837 13.7021C32.624 12.8442 31.7792 12.3164 30.8654 12.3164H26.055Z" fill="white"/>
<path d="M147.162 44.074H147.221C146.897 44.074 146.592 43.9663 146.348 43.7793C146.575 43.9636 146.856 44.074 147.162 44.074Z" fill="#F07F17"/>
<path d="M79.5275 43.1375L73.6954 31.833H73.6396V31.8387L79.4688 43.1375C79.767 43.7155 80.3294 44.0734 80.9393 44.0734H80.9979C80.388 44.0734 79.8257 43.7155 79.5275 43.1375Z" fill="#F07F17"/>
<path d="M80.4005 34.6138V24.2953C80.4005 23.2838 81.1552 22.4639 82.0862 22.4639H82.0275C81.0965 22.4639 80.3418 23.2838 80.3418 24.2953V34.6116L80.3449 34.6138H80.4005Z" fill="#F07F17"/>
<path d="M68.0206 42.2423V25.5164L80.2475 34.5422L74.2638 23.3739C73.9619 22.8105 73.407 22.4639 72.8069 22.4639H69.6476C68.7166 22.4639 67.9619 23.2838 67.9619 24.2953V42.2423C67.9619 43.2538 68.7166 44.0737 69.6476 44.0737H69.7063C68.7753 44.0737 68.0206 43.2538 68.0206 42.2423Z" fill="#F07F17"/>
<path d="M95.9769 21.5272H96.0355C95.8061 21.5289 95.6157 21.4489 95.4766 21.3203C95.6079 21.4476 95.7814 21.5272 95.9769 21.5272Z" fill="#F07F17"/>
<path d="M101.053 18.7999C101.473 18.2689 101.126 17.4473 100.482 17.4473H97.5732L99.4904 20.776L101.053 18.7999Z" fill="#F07F17"/>
<path d="M100.206 36.0646V23.2828C100.206 22.8305 100.544 22.4639 100.96 22.4639H100.901C100.485 22.4639 100.148 22.8305 100.148 23.2828V36.0646C100.148 38.029 99.146 39.4194 97.1709 39.4194C95.0287 39.4194 94.0272 38.1801 94.0272 36.1855V23.2828C94.0272 22.8305 93.6897 22.4639 93.2734 22.4639H88.9667C88.5504 22.4639 88.2129 22.8305 88.2129 23.2828V35.8228C88.2129 41.2328 91.1061 44.4667 97.0875 44.4667C97.1073 44.4667 97.1263 44.4657 97.1461 44.4656L97.2295 39.4194C99.2047 39.4194 100.206 38.029 100.206 36.0646Z" fill="#F07F17"/>
<path d="M95.8003 18.6133L95.2588 20.4605L95.7256 18.8757C95.7532 18.7825 95.7777 18.6956 95.8003 18.6133Z" fill="#F07F17"/>
<path d="M96.6926 17.4473C96.5484 17.4473 96.4126 17.494 96.2959 17.5728C96.4173 17.5038 96.5802 17.4644 96.8104 17.4473H96.6926Z" fill="#F07F17"/>
<path d="M112.337 21.252C112.331 21.4344 112.464 21.5876 112.632 21.5876H112.693C112.48 21.5441 112.372 21.4466 112.337 21.252Z" fill="#F07F17"/>
<path d="M116.007 20.3184C116 20.3184 115.993 20.3192 115.986 20.3194C116.462 20.33 116.721 20.5408 117.535 20.9531C118.091 21.225 118.703 21.4367 119.454 21.4367C119.465 21.4367 119.476 21.4359 119.487 21.4358C118.748 21.431 118.143 21.2218 117.593 20.9531C116.758 20.5298 116.508 20.3184 116.007 20.3184Z" fill="#F07F17"/>
<path d="M119.835 17.3104C119.868 17.1261 120.019 16.9941 120.192 16.9941H120.133C119.96 16.9941 119.809 17.1261 119.777 17.3104C119.686 17.8237 119.462 18.1427 118.925 18.1427C118.48 18.1427 118.23 17.9613 117.534 17.5685C116.978 17.2662 116.31 16.9941 115.559 16.9941C114.207 16.9941 113.048 17.8489 112.568 19.623L118.984 18.1427C119.521 18.1427 119.744 17.8237 119.835 17.3104Z" fill="#F07F17"/>
<path d="M120.179 43.9101L113.964 31.8626L113.893 31.8333H113.949L113.964 31.8626L120.522 34.5826L114.114 22.623C114.062 22.5245 113.965 22.4639 113.86 22.4639H108.51C108.347 22.4639 108.215 22.6072 108.215 22.784V43.7536C108.215 43.9304 108.347 44.0737 108.51 44.0737H113.54C113.702 44.0737 113.834 43.9304 113.834 43.7536V31.8333H113.89L120.121 43.9101C120.173 44.0111 120.271 44.0737 120.378 44.0737H120.436C120.33 44.0737 120.232 44.0111 120.179 43.9101Z" fill="#F07F17"/>
<path d="M120.652 34.6138V22.784C120.652 22.6072 120.784 22.4639 120.947 22.4639H120.888C120.726 22.4639 120.594 22.6072 120.594 22.784V34.6127L120.597 34.6138H120.652Z" fill="#F07F17"/>
<path d="M134.42 29.0981V27.8466C134.42 27.7115 134.521 27.602 134.645 27.602H143.876C144 27.602 144.101 27.4924 144.101 27.3573V22.7085C144.101 22.5734 144 22.4639 143.876 22.4639H128.831C128.706 22.4639 128.605 22.5734 128.605 22.7085V43.8291C128.605 43.9642 128.706 44.0737 128.831 44.0737H130.013L134.418 29.0687L134.42 29.0981Z" fill="#F07F17"/>
<path d="M155.536 38.6641H155.477C154.418 38.6641 153.443 38.7545 153.199 38.7789V38.7849C153.199 38.7849 154.312 38.6641 155.536 38.6641Z" fill="#F07F17"/>
<path d="M145.797 41.7334V42.5901C145.797 42.6976 145.808 42.8023 145.828 42.9033C145.816 42.8285 145.808 42.752 145.808 42.6724L145.797 41.7334Z" fill="#F07F17"/>
<path d="M154.869 27.8438V27.753L155.228 36.3576L162.209 27.6276C162.425 27.3577 162.544 27.0121 162.544 26.6545V23.9477C162.544 23.1282 161.933 22.4639 161.178 22.4639H147.886C147.131 22.4639 146.52 23.1282 146.52 23.9477V26.39C146.52 27.2095 147.131 27.8739 147.886 27.8739H152.918C153.809 27.8739 154.81 27.753 154.81 27.753V27.8438C154.81 27.8438 153.892 28.7504 153.224 29.5966L146.132 38.4565L153.283 29.5966C153.951 28.7504 154.869 27.8438 154.869 27.8438Z" fill="#F07F17"/>
<path d="M63.7863 22.4639H63.7109C63.898 22.4752 64.0744 22.4955 64.2382 22.5291C64.0936 22.488 63.9427 22.4639 63.7863 22.4639Z" fill="#F07F17"/>
<path d="M61.539 22.4639C60.5542 22.4639 59.7559 23.3312 59.7559 24.4011V42.1365C59.7559 43.2064 60.5542 44.0737 61.539 44.0737H62.7979V22.4639H61.539Z" fill="#F07F17"/>
<path d="M64.2388 22.5288C64.075 22.4952 63.8986 22.4749 63.7115 22.4636C63.4313 22.4466 63.1263 22.4501 62.7979 22.4636V44.0735H63.9219C64.9066 44.0735 65.705 43.2062 65.705 42.1362V25.622C65.8336 23.4757 65.28 22.7424 64.2388 22.5288Z" fill="#F39208"/>
<path d="M84.3339 22.4639H82.0858C81.1549 22.4639 80.4001 23.2838 80.4001 24.2953V34.6138H80.3445L80.3415 34.6116L80.2474 34.5422L68.0205 25.5164V42.2423C68.0205 43.2538 68.7753 44.0737 69.7062 44.0737H71.9543C72.8852 44.0737 73.64 43.2538 73.64 42.2423V31.8333H73.6957L79.5278 43.1378C79.826 43.7158 80.3884 44.0737 80.9983 44.0737H84.3339C85.265 44.0737 86.0197 43.2538 86.0197 42.2423V24.2953C86.0197 23.2838 85.265 22.4639 84.3339 22.4639Z" fill="#F39208"/>
<path d="M96.0351 21.5262H98.6081C98.8278 21.5262 99.0366 21.422 99.1798 21.241L99.4958 20.785L99.4899 20.7748L97.5727 17.446C97.2572 17.4328 97.0089 17.4313 96.8102 17.446C96.5801 17.4632 96.4171 17.5026 96.2957 17.5716C96.1703 17.6428 96.0888 17.746 96.0231 17.8893C96.0215 17.8928 96.0198 17.8963 96.0182 17.8999C95.9404 18.074 95.8837 18.3066 95.7998 18.6115C95.7771 18.6938 95.7527 18.7808 95.7251 18.8739L95.2582 20.4587C95.163 20.7836 95.2539 21.1139 95.4762 21.3193C95.6153 21.4479 95.8057 21.5279 96.0351 21.5262Z" fill="#F39208"/>
<path d="M105.267 22.4639H100.96C100.544 22.4639 100.207 22.8305 100.207 23.2828V36.0646C100.207 38.029 99.2051 39.4194 97.2299 39.4194L97.1465 44.4656L97.1465 44.4667C103.1 44.4667 106.021 41.1422 106.021 35.8228V23.2828C106.021 22.8305 105.683 22.4639 105.267 22.4639Z" fill="#F39208"/>
<path d="M112.693 21.5881C112.902 21.6308 113.21 21.6225 113.649 21.6048L114.81 21.5881C114.95 21.5881 115.07 21.4791 115.098 21.3297C115.219 20.687 115.528 20.3306 115.986 20.3199C115.993 20.3197 116 20.3188 116.007 20.3188C116.508 20.3188 116.758 20.5303 117.593 20.9536C118.142 21.2223 118.747 21.4315 119.487 21.4363C119.495 21.4363 119.503 21.4372 119.512 21.4372C121.456 21.4372 122.457 19.8026 122.539 17.3294C122.545 17.147 122.412 16.9941 122.244 16.9941H120.191C120.018 16.9941 119.867 17.1261 119.835 17.3104C119.744 17.8237 119.52 18.1427 118.984 18.1427L112.568 19.623L112.553 19.6264C112.534 19.7274 112.515 19.8221 112.498 19.9134C112.473 20.0274 112.45 20.1442 112.431 20.2651C112.344 20.7364 112.301 21.0482 112.337 21.2525C112.373 21.4471 112.48 21.5446 112.693 21.5881Z" fill="#F39208"/>
<path d="M113.893 31.833L113.962 31.8618L113.947 31.833H113.893Z" fill="#F39208"/>
<path d="M125.978 22.4639H120.948C120.785 22.4639 120.653 22.6072 120.653 22.784V34.6138H120.598L120.595 34.6127L120.522 34.5826L113.964 31.8626L120.179 43.9101C120.232 44.0111 120.33 44.0737 120.437 44.0737H125.978C126.141 44.0737 126.273 43.9304 126.273 43.7536V22.784C126.273 22.6072 126.141 22.4639 125.978 22.4639Z" fill="#F39208"/>
<path d="M144.212 38.6634H134.703C134.579 38.6634 134.478 38.5539 134.478 38.4188V35.523C134.478 35.3878 134.579 35.2783 134.703 35.2783H142.348C142.472 35.2783 142.573 35.1688 142.573 35.0337V30.7778C142.573 30.6427 142.472 30.5332 142.348 30.5332H134.703C134.579 30.5332 134.478 30.4237 134.478 30.2886L134.419 29.0978L134.418 29.0684L130.013 44.0734H144.212C144.337 44.0734 144.437 43.9639 144.437 43.8287V38.908C144.437 38.7729 144.337 38.6634 144.212 38.6634Z" fill="#F39208"/>
<path d="M161.765 38.6637H155.536C154.312 38.6637 153.199 38.7846 153.199 38.7846V38.694C153.199 38.694 154.312 37.5756 155.23 36.4273L155.227 36.3575L154.869 27.7529V27.8437C154.869 27.8437 153.951 28.7504 153.283 29.5966L146.132 38.4564C146.078 38.5234 146.029 38.5982 145.985 38.6782C145.852 38.9212 145.77 39.2127 145.77 39.4819L145.796 41.7331L145.808 42.6722C145.808 42.7517 145.816 42.8282 145.828 42.903C145.881 43.2399 146.05 43.5245 146.287 43.7289C146.294 43.7343 146.3 43.74 146.306 43.7452C146.32 43.7567 146.334 43.7682 146.348 43.779C146.592 43.966 146.897 44.0737 147.221 44.0737H161.765C162.52 44.0737 163.131 43.4094 163.131 42.5899V40.1475C163.131 39.328 162.52 38.6637 161.765 38.6637Z" fill="#F39208"/>
<path d="M62.3748 45.9641C62.7233 45.9641 63.017 46.1155 63.2509 46.4075L63.7686 45.8883C63.4401 45.4557 62.9373 45.2178 62.335 45.2178C61.2498 45.2178 60.4434 46.0344 60.4434 47.1755C60.4434 48.3166 61.2498 49.1333 62.33 49.1333C62.9373 49.1333 63.4401 48.8953 63.7686 48.4572L63.2509 47.9381C63.017 48.2355 62.7233 48.3869 62.3748 48.3869C61.7227 48.3869 61.2597 47.8894 61.2597 47.1755C61.2597 46.4616 61.7227 45.9641 62.3748 45.9641Z" fill="#0FABA0"/>
<path d="M65.4364 46.1152C64.5851 46.1152 63.9629 46.7372 63.9629 47.6133C63.9629 48.4895 64.5851 49.1113 65.4364 49.1113C66.2876 49.1113 66.9049 48.4895 66.9049 47.6133C66.9049 46.7372 66.2876 46.1152 65.4364 46.1152ZM65.4364 48.4191C65.0481 48.4191 64.7494 48.1163 64.7494 47.6133C64.7494 47.1104 65.0481 46.8075 65.4364 46.8075C65.8247 46.8075 66.1183 47.1104 66.1183 47.6133C66.1183 48.1163 65.8247 48.4191 65.4364 48.4191Z" fill="#0FABA0"/>
<path d="M68.1645 46.5425V46.1585H67.4229V49.0681H68.1994V47.6944C68.1994 47.1374 68.4831 46.8832 68.9112 46.8832C68.971 46.8832 69.0208 46.8886 69.0855 46.894V46.1152C68.6723 46.1152 68.3537 46.2613 68.1645 46.5425Z" fill="#0FABA0"/>
<path d="M71.1309 46.1152C70.7724 46.1152 70.4837 46.2397 70.2896 46.4938V46.1585H69.5479V50.1173H70.3244V48.7598C70.5236 48.9978 70.7973 49.1113 71.1309 49.1113C71.8825 49.1113 72.465 48.5273 72.465 47.6133C72.465 46.6993 71.8825 46.1152 71.1309 46.1152ZM70.9964 48.4191C70.6082 48.4191 70.3145 48.1163 70.3145 47.6133C70.3145 47.1104 70.6082 46.8075 70.9964 46.8075C71.3847 46.8075 71.6784 47.1104 71.6784 47.6133C71.6784 48.1163 71.3847 48.4191 70.9964 48.4191Z" fill="#0FABA0"/>
<path d="M74.2577 46.1152C73.4064 46.1152 72.7842 46.7372 72.7842 47.6133C72.7842 48.4895 73.4064 49.1113 74.2577 49.1113C75.1089 49.1113 75.7262 48.4895 75.7262 47.6133C75.7262 46.7372 75.1089 46.1152 74.2577 46.1152ZM74.2577 48.4191C73.8694 48.4191 73.5707 48.1163 73.5707 47.6133C73.5707 47.1104 73.8694 46.8075 74.2577 46.8075C74.6459 46.8075 74.9396 47.1104 74.9396 47.6133C74.9396 48.1163 74.6459 48.4191 74.2577 48.4191Z" fill="#0FABA0"/>
<path d="M76.9858 46.5425V46.1585H76.2441V49.0681H77.0207V47.6944C77.0207 47.1374 77.3044 46.8832 77.7325 46.8832C77.7923 46.8832 77.842 46.8886 77.9068 46.894V46.1152C77.4936 46.1152 77.175 46.2613 76.9858 46.5425Z" fill="#0FABA0"/>
<path d="M79.4351 46.1152C79.007 46.1152 78.5739 46.2397 78.2802 46.4668L78.5589 47.0563C78.7531 46.8886 79.0468 46.7859 79.3306 46.7859C79.7487 46.7859 79.9478 46.9968 79.9478 47.3591H79.3306C78.5141 47.3591 78.1807 47.7161 78.1807 48.2299C78.1807 48.7328 78.554 49.1113 79.1812 49.1113C79.5745 49.1113 79.8532 48.9707 79.9976 48.7057V49.0681H80.7244V47.4078C80.7244 46.5263 80.2515 46.1152 79.4351 46.1152ZM79.9478 48.1487C79.8582 48.4137 79.6342 48.5435 79.3754 48.5435C79.1016 48.5435 78.9373 48.4029 78.9373 48.192C78.9373 47.9973 79.0518 47.8513 79.4152 47.8513H79.9478V48.1487Z" fill="#0FABA0"/>
<path d="M82.7452 46.8075C82.9892 46.8075 83.2032 46.9319 83.3476 47.2077L83.9499 46.8562C83.7558 46.3803 83.3127 46.1152 82.7502 46.1152C81.8791 46.1152 81.2568 46.7372 81.2568 47.6133C81.2568 48.4895 81.8791 49.1113 82.7502 49.1113C83.3127 49.1113 83.7558 48.841 83.9499 48.3758L83.3476 48.0189C83.2032 48.3002 82.9892 48.4191 82.7452 48.4191C82.352 48.4191 82.0433 48.1217 82.0433 47.6133C82.0433 47.105 82.352 46.8075 82.7452 46.8075Z" fill="#0FABA0"/>
<path d="M84.7866 44.8125C84.4978 44.8125 84.3037 45.018 84.3037 45.283C84.3037 45.548 84.4978 45.7535 84.7866 45.7535C85.0753 45.7535 85.2694 45.548 85.2694 45.2668C85.2694 45.0072 85.0753 44.8125 84.7866 44.8125Z" fill="#0FABA0"/>
<path d="M85.175 46.1592H84.3984V49.0688H85.175V46.1592Z" fill="#0FABA0"/>
<path d="M88.2163 45.0068H87.3801L86.708 45.7856H87.3154L88.2163 45.0068Z" fill="#0FABA0"/>
<path d="M87.1707 46.1152C86.3195 46.1152 85.6973 46.7372 85.6973 47.6133C85.6973 48.4895 86.3195 49.1113 87.1707 49.1113C88.022 49.1113 88.6393 48.4895 88.6393 47.6133C88.6393 46.7372 88.022 46.1152 87.1707 46.1152ZM87.1707 48.4191C86.7824 48.4191 86.4838 48.1163 86.4838 47.6133C86.4838 47.1104 86.7824 46.8075 87.1707 46.8075C87.559 46.8075 87.8527 47.1104 87.8527 47.6133C87.8527 48.1163 87.559 48.4191 87.1707 48.4191Z" fill="#0FABA0"/>
<path d="M90.7851 46.1152C90.4217 46.1152 90.108 46.2504 89.899 46.4993V46.1585H89.1572V49.0681H89.9338V47.6295C89.9338 47.0941 90.2026 46.8454 90.576 46.8454C90.9194 46.8454 91.1186 47.0617 91.1186 47.5322V49.0681H91.8951V47.4024C91.8951 46.5154 91.4172 46.1152 90.7851 46.1152Z" fill="#0FABA0"/>
<path d="M96.3908 47.3708C96.3908 48.09 96.107 48.3875 95.6142 48.3875C95.1264 48.3875 94.8377 48.09 94.8377 47.3708V45.2832H94.0312V47.4032C94.0312 48.5173 94.6186 49.1338 95.6092 49.1338C96.5999 49.1338 97.1873 48.5173 97.1873 47.4032V45.2832H96.3908V47.3708Z" fill="#0FABA0"/>
<path d="M99.5565 46.1152C99.1931 46.1152 98.8795 46.2504 98.6705 46.4993V46.1585H97.9287V49.0681H98.7053V47.6295C98.7053 47.0941 98.9741 46.8454 99.3475 46.8454C99.6909 46.8454 99.8901 47.0617 99.8901 47.5322V49.0681H100.667V47.4024C100.667 46.5154 100.189 46.1152 99.5565 46.1152Z" fill="#0FABA0"/>
<path d="M101.757 44.8125C101.469 44.8125 101.274 45.018 101.274 45.283C101.274 45.548 101.469 45.7535 101.757 45.7535C102.046 45.7535 102.24 45.548 102.24 45.2668C102.24 45.0072 102.046 44.8125 101.757 44.8125Z" fill="#0FABA0"/>
<path d="M102.146 46.1592H101.369V49.0688H102.146V46.1592Z" fill="#0FABA0"/>
<path d="M104.013 48.1385L103.271 46.1592H102.47L103.595 49.0688H104.396L105.526 46.1592H104.78L104.013 48.1385Z" fill="#0FABA0"/>
<path d="M107 46.1152C106.184 46.1152 105.571 46.7426 105.571 47.6133C105.571 48.4786 106.174 49.1113 107.1 49.1113C107.582 49.1113 107.956 48.9491 108.205 48.6408L107.791 48.1541C107.607 48.3434 107.403 48.4353 107.119 48.4353C106.711 48.4353 106.428 48.2136 106.353 47.8513H108.379C108.384 47.781 108.394 47.689 108.394 47.6242C108.394 46.6885 107.786 46.1152 107 46.1152ZM106.343 47.3591C106.398 46.986 106.652 46.7534 107.005 46.7534C107.353 46.7534 107.607 46.9914 107.662 47.3591H106.343Z" fill="#0FABA0"/>
<path d="M109.653 46.5425V46.1585H108.911V49.0681H109.688V47.6944C109.688 47.1374 109.971 46.8832 110.4 46.8832C110.459 46.8832 110.509 46.8886 110.574 46.894V46.1152C110.161 46.1152 109.842 46.2613 109.653 46.5425Z" fill="#0FABA0"/>
<path d="M111.595 47.0238C111.595 46.8724 111.744 46.7534 112.092 46.7534C112.336 46.7534 112.6 46.8075 112.864 46.9698L113.123 46.3694C112.869 46.2072 112.461 46.1152 112.092 46.1152C111.311 46.1152 110.853 46.5046 110.853 47.0563C110.853 48.219 112.471 47.7323 112.471 48.2082C112.471 48.3705 112.336 48.4732 111.978 48.4732C111.649 48.4732 111.286 48.3596 111.047 48.192L110.788 48.7977C111.037 48.9762 111.495 49.1113 111.948 49.1113C112.749 49.1113 113.212 48.7274 113.212 48.1866C113.212 47.0401 111.595 47.5214 111.595 47.0238Z" fill="#0FABA0"/>
<path d="M114.079 44.8125C113.79 44.8125 113.596 45.018 113.596 45.283C113.596 45.548 113.79 45.7535 114.079 45.7535C114.367 45.7535 114.561 45.548 114.561 45.2668C114.561 45.0072 114.367 44.8125 114.079 44.8125Z" fill="#0FABA0"/>
<path d="M114.467 46.1592H113.69V49.0688H114.467V46.1592Z" fill="#0FABA0"/>
<path d="M116.393 48.4414C116.184 48.4414 116.06 48.3062 116.06 48.0575V46.873H116.727V46.2241H116.06V45.5156H115.283V46.2241H114.87V46.873H115.283V48.0682C115.283 48.7605 115.652 49.112 116.284 49.112C116.523 49.112 116.757 49.0525 116.916 48.9282L116.707 48.3333C116.622 48.4036 116.508 48.4414 116.393 48.4414Z" fill="#0FABA0"/>
<path d="M118.434 46.1152C118.006 46.1152 117.573 46.2397 117.279 46.4668L117.558 47.0563C117.752 46.8886 118.046 46.7859 118.33 46.7859C118.748 46.7859 118.947 46.9968 118.947 47.3591H118.33C117.513 47.3591 117.18 47.7161 117.18 48.2299C117.18 48.7328 117.553 49.1113 118.18 49.1113C118.573 49.1113 118.852 48.9707 118.997 48.7057V49.0681H119.723V47.4078C119.723 46.5263 119.251 46.1152 118.434 46.1152ZM118.947 48.1487C118.857 48.4137 118.633 48.5435 118.374 48.5435C118.101 48.5435 117.936 48.4029 117.936 48.192C117.936 47.9973 118.051 47.8513 118.414 47.8513H118.947V48.1487Z" fill="#0FABA0"/>
<path d="M122.088 46.894V46.1152C121.675 46.1152 121.357 46.2613 121.167 46.5425V46.1585H120.426V49.0681H121.202V47.6944C121.202 47.1374 121.486 46.8832 121.914 46.8832C121.974 46.8832 122.024 46.8886 122.088 46.894Z" fill="#0FABA0"/>
<path d="M122.94 44.8125C122.651 44.8125 122.457 45.018 122.457 45.283C122.457 45.548 122.651 45.7535 122.94 45.7535C123.229 45.7535 123.423 45.548 123.423 45.2668C123.423 45.0072 123.229 44.8125 122.94 44.8125Z" fill="#0FABA0"/>
<path d="M123.328 46.1592H122.552V49.0688H123.328V46.1592Z" fill="#0FABA0"/>
<path d="M125.693 48.7057V49.0681H126.42V47.4078C126.42 46.5263 125.947 46.1152 125.13 46.1152C124.702 46.1152 124.269 46.2397 123.976 46.4668L124.254 47.0563C124.448 46.8886 124.742 46.7859 125.026 46.7859C125.444 46.7859 125.643 46.9968 125.643 47.3591H125.026C124.209 47.3591 123.876 47.7161 123.876 48.2299C123.876 48.7328 124.249 49.1113 124.877 49.1113C125.27 49.1113 125.549 48.9707 125.693 48.7057ZM125.071 48.5435C124.797 48.5435 124.633 48.4029 124.633 48.192C124.633 47.9973 124.747 47.8513 125.11 47.8513H125.643V48.1487C125.554 48.4137 125.33 48.5435 125.071 48.5435Z" fill="#0FABA0"/>
<path d="M129.391 48.0143H130.133L130.805 49.0689H131.671L130.89 47.8521C131.343 47.6412 131.607 47.2247 131.607 46.6569C131.607 45.8078 131.024 45.2832 130.093 45.2832H128.585V49.0689H129.391V48.0143ZM129.391 45.9971H130.048C130.541 45.9971 130.79 46.2405 130.79 46.6569C130.79 47.0679 130.541 47.3167 130.048 47.3167H129.391V45.9971Z" fill="#0FABA0"/>
<path d="M134.534 49.0681V47.4078C134.534 46.5263 134.061 46.1152 133.245 46.1152C132.817 46.1152 132.383 46.2397 132.09 46.4668L132.369 47.0563C132.563 46.8886 132.856 46.7859 133.14 46.7859C133.558 46.7859 133.757 46.9968 133.757 47.3591H133.14C132.324 47.3591 131.99 47.7161 131.99 48.2299C131.99 48.7328 132.364 49.1113 132.991 49.1113C133.384 49.1113 133.663 48.9707 133.807 48.7057V49.0681H134.534ZM133.757 48.1487C133.668 48.4137 133.444 48.5435 133.185 48.5435C132.911 48.5435 132.747 48.4029 132.747 48.192C132.747 47.9973 132.861 47.8513 133.225 47.8513H133.757V48.1487Z" fill="#0FABA0"/>
<path d="M136.775 46.2241H136.088V46.0997C136.088 45.8131 136.212 45.6779 136.441 45.6779C136.561 45.6779 136.67 45.7157 136.755 45.7806L136.959 45.1695C136.815 45.0613 136.586 45.0127 136.367 45.0127C135.7 45.0127 135.331 45.4399 135.331 46.0943V46.2241H134.918V46.8731H135.331V49.0688H136.108V46.8731H136.775V46.2241Z" fill="#0FABA0"/>
<path d="M138.193 46.1152C137.765 46.1152 137.332 46.2397 137.038 46.4668L137.317 47.0563C137.511 46.8886 137.805 46.7859 138.088 46.7859C138.507 46.7859 138.706 46.9968 138.706 47.3591H138.088C137.272 47.3591 136.938 47.7161 136.938 48.2299C136.938 48.7328 137.312 49.1113 137.939 49.1113C138.332 49.1113 138.611 48.9707 138.755 48.7057V49.0681H139.482V47.4078C139.482 46.5263 139.009 46.1152 138.193 46.1152ZM138.706 48.1487C138.616 48.4137 138.392 48.5435 138.133 48.5435C137.859 48.5435 137.695 48.4029 137.695 48.192C137.695 47.9973 137.81 47.8513 138.173 47.8513H138.706V48.1487Z" fill="#0FABA0"/>
<path d="M141.444 46.1152C140.628 46.1152 140.016 46.7426 140.016 47.6133C140.016 48.4786 140.618 49.1113 141.544 49.1113C142.027 49.1113 142.4 48.9491 142.649 48.6408L142.236 48.1541C142.052 48.3434 141.848 48.4353 141.564 48.4353C141.156 48.4353 140.872 48.2136 140.797 47.8513H142.823C142.828 47.781 142.838 47.689 142.838 47.6242C142.838 46.6885 142.231 46.1152 141.444 46.1152ZM140.787 47.3591C140.842 46.986 141.096 46.7534 141.449 46.7534C141.798 46.7534 142.052 46.9914 142.106 47.3591H140.787Z" fill="#0FABA0"/>
<path d="M144.132 45.0557H143.355V49.0685H144.132V45.0557Z" fill="#0FABA0"/>
<path d="M149.513 49.0689V45.2832H148.717V47.5817L146.984 45.2832H146.317V49.0689H147.114V46.7705L148.851 49.0689H149.513Z" fill="#0FABA0"/>
<path d="M152.68 45.0068H151.844L151.172 45.7856H151.779L152.68 45.0068Z" fill="#0FABA0"/>
<path d="M150.271 46.1592V47.8033C150.271 48.701 150.743 49.112 151.415 49.112C151.744 49.112 152.043 48.9768 152.247 48.7226V49.0688H152.983V46.1592H152.207V47.5977C152.207 48.1332 151.948 48.3819 151.59 48.3819C151.246 48.3819 151.047 48.1656 151.047 47.6789V46.1592H150.271Z" fill="#0FABA0"/>
<path d="M153.705 49.0681H154.482V47.6295C154.482 47.0941 154.75 46.8454 155.124 46.8454C155.467 46.8454 155.666 47.0617 155.666 47.5322V49.0681H156.443V47.4024C156.443 46.5154 155.965 46.1152 155.333 46.1152C154.969 46.1152 154.656 46.2504 154.447 46.4993V46.1585H153.705V49.0681Z" fill="#0FABA0"/>
<path d="M154.756 45.4614C154.935 45.4614 155.11 45.8021 155.453 45.8021C155.802 45.8021 156.026 45.4938 156.036 45.0287H155.642C155.632 45.2072 155.538 45.3207 155.403 45.3207C155.224 45.3207 155.05 44.9746 154.706 44.9746C154.358 44.9746 154.134 45.2829 154.124 45.7642H154.517C154.527 45.5695 154.622 45.4614 154.756 45.4614Z" fill="#0FABA0"/>
<path d="M159.61 48.6408L159.197 48.1541C159.013 48.3434 158.808 48.4353 158.525 48.4353C158.117 48.4353 157.833 48.2136 157.758 47.8513H159.784C159.789 47.781 159.799 47.689 159.799 47.6242C159.799 46.6885 159.192 46.1152 158.405 46.1152C157.589 46.1152 156.977 46.7426 156.977 47.6133C156.977 48.4786 157.579 49.1113 158.505 49.1113C158.988 49.1113 159.361 48.9491 159.61 48.6408ZM158.41 46.7534C158.759 46.7534 159.013 46.9914 159.067 47.3591H157.748C157.803 46.986 158.057 46.7534 158.41 46.7534Z" fill="#0FABA0"/>
<path d="M162.452 46.6675V46.1592H160.142V46.8081H161.471L160.107 48.5604V49.0688H162.497V48.4197H161.088L162.452 46.6675Z" fill="#0FABA0"/>
<path d="M122.866 52.9286L122.174 51.1621H121.604L122.587 53.6352H123.107L124.092 51.1621H123.569L122.866 52.9286Z" fill="#0FABA0"/>
<path d="M124.785 51.7344H124.277V53.6351H124.785V51.7344Z" fill="#0FABA0"/>
<path d="M124.531 50.8555C124.343 50.8555 124.216 50.9897 124.216 51.1628C124.216 51.3359 124.343 51.4702 124.531 51.4702C124.72 51.4702 124.847 51.3359 124.847 51.1522C124.847 50.9826 124.72 50.8555 124.531 50.8555Z" fill="#0FABA0"/>
<path d="M126.581 51.9781C126.447 51.7944 126.246 51.7061 126.002 51.7061C125.517 51.7061 125.127 52.0699 125.127 52.6246C125.127 53.1793 125.517 53.5431 126.002 53.5431C126.229 53.5431 126.421 53.4654 126.555 53.3065V53.3877C126.555 53.7304 126.398 53.9071 126.041 53.9071C125.816 53.9071 125.572 53.8223 125.423 53.6915L125.221 54.0872C125.426 54.2603 125.748 54.3487 126.08 54.3487C126.711 54.3487 127.062 54.0237 127.062 53.317V51.7343H126.581V51.9781ZM126.103 53.0909C125.836 53.0909 125.641 52.9037 125.641 52.6246C125.641 52.3455 125.836 52.1583 126.103 52.1583C126.369 52.1583 126.561 52.3455 126.561 52.6246C126.561 52.9037 126.369 53.0909 126.103 53.0909Z" fill="#0FABA0"/>
<path d="M127.787 50.8555C127.599 50.8555 127.472 50.9897 127.472 51.1628C127.472 51.3359 127.599 51.4702 127.787 51.4702C127.976 51.4702 128.103 51.3359 128.103 51.1522C128.103 50.9826 127.976 50.8555 127.787 50.8555Z" fill="#0FABA0"/>
<path d="M128.041 51.7344H127.533V53.6351H128.041V51.7344Z" fill="#0FABA0"/>
<path d="M129.019 51.0137H128.512V53.6351H129.019V51.0137Z" fill="#0FABA0"/>
<path d="M130.196 51.7061C129.917 51.7061 129.634 51.7873 129.442 51.9357L129.624 52.3208C129.751 52.2113 129.943 52.1441 130.128 52.1441C130.401 52.1441 130.531 52.2819 130.531 52.5186H130.128C129.595 52.5186 129.377 52.7518 129.377 53.0874C129.377 53.416 129.621 53.6633 130.031 53.6633C130.288 53.6633 130.47 53.5714 130.564 53.3983V53.635H131.039V52.5504C131.039 51.9746 130.73 51.7061 130.196 51.7061ZM130.531 53.0344C130.473 53.2075 130.327 53.2923 130.157 53.2923C129.979 53.2923 129.871 53.2005 129.871 53.0627C129.871 52.9355 129.946 52.8401 130.183 52.8401H130.531V53.0344Z" fill="#0FABA0"/>
<path d="M132.792 51.9358C132.665 51.7803 132.483 51.7061 132.268 51.7061C131.774 51.7061 131.394 52.0877 131.394 52.6847C131.394 53.2818 131.774 53.6633 132.268 53.6633C132.502 53.6633 132.688 53.5821 132.815 53.416V53.6351H133.299V51.0137H132.792V51.9358ZM132.356 53.2111C132.102 53.2111 131.907 53.0133 131.907 52.6847C131.907 52.3561 132.102 52.1583 132.356 52.1583C132.606 52.1583 132.802 52.3561 132.802 52.6847C132.802 53.0133 132.606 53.2111 132.356 53.2111Z" fill="#0FABA0"/>
<path d="M134.473 51.7061C134.193 51.7061 133.91 51.7873 133.718 51.9357L133.9 52.3208C134.027 52.2113 134.219 52.1441 134.405 52.1441C134.678 52.1441 134.808 52.2819 134.808 52.5186H134.405C133.871 52.5186 133.653 52.7518 133.653 53.0874C133.653 53.416 133.897 53.6633 134.307 53.6633C134.564 53.6633 134.746 53.5714 134.84 53.3983V53.635H135.315V52.5504C135.315 51.9746 135.006 51.7061 134.473 51.7061ZM134.808 53.0344C134.749 53.2075 134.603 53.2923 134.434 53.2923C134.255 53.2923 134.148 53.2005 134.148 53.0627C134.148 52.9355 134.222 52.8401 134.46 52.8401H134.808V53.0344Z" fill="#0FABA0"/>
<path d="M138.856 51.1621L138.017 52.6989L137.165 51.1621H136.729V53.6352H137.224V52.1831L137.89 53.3737H138.128L138.798 52.1514L138.801 53.6352H139.295L139.289 51.1621H138.856Z" fill="#0FABA0"/>
<path d="M140.307 51.7344H139.8V53.6351H140.307V51.7344Z" fill="#0FABA0"/>
<path d="M140.053 50.8555C139.864 50.8555 139.737 50.9897 139.737 51.1628C139.737 51.3359 139.864 51.4702 140.053 51.4702C140.241 51.4702 140.368 51.3359 140.368 51.1522C140.368 50.9826 140.241 50.8555 140.053 50.8555Z" fill="#0FABA0"/>
<path d="M141.842 51.7061C141.604 51.7061 141.399 51.7944 141.263 51.9569V51.7343H140.778V53.635H141.286V52.6953C141.286 52.3455 141.461 52.183 141.705 52.183C141.93 52.183 142.06 52.3243 142.06 52.6317V53.635H142.567V52.5469C142.567 51.9675 142.255 51.7061 141.842 51.7061Z" fill="#0FABA0"/>
<path d="M143.848 51.7061C143.315 51.7061 142.915 52.1159 142.915 52.6847C142.915 53.2499 143.309 53.6633 143.913 53.6633C144.229 53.6633 144.473 53.5573 144.635 53.3559L144.365 53.0379C144.245 53.1616 144.112 53.2217 143.926 53.2217C143.66 53.2217 143.474 53.0768 143.426 52.8401H144.749C144.752 52.7942 144.759 52.7341 144.759 52.6917C144.759 52.0805 144.362 51.7061 143.848 51.7061ZM143.419 52.5186C143.455 52.2749 143.621 52.1229 143.852 52.1229C144.079 52.1229 144.245 52.2784 144.281 52.5186H143.419Z" fill="#0FABA0"/>
<path d="M146.372 51.9358C146.245 51.7803 146.063 51.7061 145.848 51.7061C145.354 51.7061 144.974 52.0877 144.974 52.6847C144.974 53.2818 145.354 53.6633 145.848 53.6633C146.083 53.6633 146.268 53.5821 146.395 53.416V53.6351H146.879V51.0137H146.372V51.9358ZM145.936 53.2111C145.683 53.2111 145.487 53.0133 145.487 52.6847C145.487 52.3561 145.683 52.1583 145.936 52.1583C146.187 52.1583 146.382 52.3561 146.382 52.6847C146.382 53.0133 146.187 53.2111 145.936 53.2111Z" fill="#0FABA0"/>
<path d="M148.603 52.6741C148.603 53.0239 148.434 53.1864 148.2 53.1864C147.975 53.1864 147.845 53.0451 147.845 52.7271V51.7344H147.338V52.8084C147.338 53.3949 147.647 53.6633 148.086 53.6633C148.3 53.6633 148.496 53.575 148.629 53.409V53.6351H149.11V51.7344H148.603V52.6741Z" fill="#0FABA0"/>
<path d="M150.424 52.1583C150.583 52.1583 150.723 52.2395 150.817 52.4197L151.21 52.19C151.084 51.8792 150.794 51.7061 150.427 51.7061C149.858 51.7061 149.451 52.1123 149.451 52.6847C149.451 53.257 149.858 53.6633 150.427 53.6633C150.794 53.6633 151.084 53.4866 151.21 53.1828L150.817 52.9496C150.723 53.1333 150.583 53.211 150.424 53.211C150.167 53.211 149.965 53.0168 149.965 52.6847C149.965 52.3526 150.167 52.1583 150.424 52.1583Z" fill="#0FABA0"/>
<path d="M152.209 51.7061C151.929 51.7061 151.647 51.7873 151.455 51.9357L151.637 52.3208C151.764 52.2113 151.955 52.1441 152.141 52.1441C152.414 52.1441 152.544 52.2819 152.544 52.5186H152.141C151.608 52.5186 151.39 52.7518 151.39 53.0874C151.39 53.416 151.634 53.6633 152.043 53.6633C152.3 53.6633 152.482 53.5714 152.577 53.3983V53.635H153.051V52.5504C153.051 51.9746 152.742 51.7061 152.209 51.7061ZM152.544 53.0344C152.486 53.2075 152.339 53.2923 152.17 53.2923C151.991 53.2923 151.884 53.2005 151.884 53.0627C151.884 52.9355 151.959 52.8401 152.196 52.8401H152.544V53.0344Z" fill="#0FABA0"/>
<path d="M154.372 52.1583C154.531 52.1583 154.671 52.2395 154.765 52.4197L155.159 52.19C155.032 51.8792 154.742 51.7061 154.375 51.7061C153.806 51.7061 153.399 52.1123 153.399 52.6847C153.399 53.257 153.806 53.6633 154.375 53.6633C154.742 53.6633 155.032 53.4866 155.159 53.1828L154.765 52.9496C154.671 53.1333 154.531 53.211 154.372 53.211C154.115 53.211 153.913 53.0168 153.913 52.6847C153.913 52.3526 154.115 52.1583 154.372 52.1583Z" fill="#0FABA0"/>
<path d="M155.705 50.8555C155.516 50.8555 155.39 50.9897 155.39 51.1628C155.39 51.3359 155.516 51.4702 155.705 51.4702C155.894 51.4702 156.021 51.3359 156.021 51.1522C156.021 50.9826 155.894 50.8555 155.705 50.8555Z" fill="#0FABA0"/>
<path d="M155.958 51.7344H155.451V53.6351H155.958V51.7344Z" fill="#0FABA0"/>
<path d="M157.262 51.7061C156.706 51.7061 156.3 52.1123 156.3 52.6847C156.3 53.257 156.706 53.6633 157.262 53.6633C157.818 53.6633 158.222 53.257 158.222 52.6847C158.222 52.1123 157.818 51.7061 157.262 51.7061ZM157.262 53.211C157.009 53.211 156.814 53.0132 156.814 52.6847C156.814 52.3561 157.009 52.1583 157.262 52.1583C157.516 52.1583 157.708 52.3561 157.708 52.6847C157.708 53.0132 157.516 53.211 157.262 53.211Z" fill="#0FABA0"/>
<path d="M157.945 50.9824H157.399L156.96 51.4912H157.357L157.945 50.9824Z" fill="#0FABA0"/>
<path d="M159.624 51.7061C159.386 51.7061 159.182 51.7944 159.045 51.9569V51.7343H158.561V53.635H159.068V52.6953C159.068 52.3455 159.243 52.183 159.487 52.183C159.712 52.183 159.842 52.3243 159.842 52.6317V53.635H160.349V52.5469C160.349 51.9675 160.037 51.7061 159.624 51.7061Z" fill="#0FABA0"/>
</g>
<defs>
<clipPath id="clip0_527_4">
<rect width="165" height="55" fill="white"/>
</clipPath>
</defs>
</svg>
